<?xml version="1.0" encoding="UTF-8" standalone="no"?><!-- Generator: Gravit.io --><svg xmlns="http://www.w3.org/2000/svg" xmlns:xlink="http://www.w3.org/1999/xlink" style="isolation:isolate" viewBox="0 0 1280 800" width="1280pt" height="800pt"><defs><clipPath id="_clipPath_jO8Ahy3W69sFtraDSVIHnr7Mufsjytc3"><rect width="1280" height="800"/></clipPath></defs><g clip-path="url(#_clipPath_jO8Ahy3W69sFtraDSVIHnr7Mufsjytc3)"><rect width="1280" height="800" style="fill:rgb(46,11,70)"/><g><g opacity="0.43"><circle vector-effect="non-scaling-stroke" cx="705.9999999999999" cy="417.64672764475824" r="229.64672764475836" fill="rgb(255,255,179)"/></g><g opacity="0.48"><circle vector-effect="non-scaling-stroke" cx="705.9999999999999" cy="417.64672764475824" r="177.64672764475847" fill="rgb(236,236,203)"/></g><g opacity="0.38"><circle vector-effect="non-scaling-stroke" cx="705.9999999999999" cy="417.64672764475847" r="121.64672764475836" fill="rgb(251,231,104)"/></g><circle vector-effect="non-scaling-stroke" cx="705.9999999999998" cy="417.64672764475836" r="112.00000000000011" fill="rgb(251,231,104)"/></g><path d=" M 15.948 644.866 C 334.963 652.9 270.6 717.17 474.882 561.851 C 679.163 406.531 746.324 393.141 945.008 583.274 C 1143.693 773.407 1490.691 596.664 1529.868 561.851 Q 1569.045 527.037 1513.078 1314.348 Q -40.019 1362.551 -45.616 1346.483 C -51.213 1330.416 -303.066 636.832 15.948 644.866 Z " fill="rgb(29,91,85)"/><path d=" M 1404 429.08 C 1269 324.08 1113 378.08 990 516.08 Q 867 654.08 516 693.08 L 63 702.08 L 0 921.08 L 1281 1116.08 L 1680 921.08 Q 1539 534.08 1404 429.08 Z " fill="rgb(18,77,106)"/><path d=" M 6 556.434 C 270 376.434 216 367.434 456 553.434 C 696 739.434 1254 730.434 1290 730.434 Q 1326 730.434 1371 919.434 L 273 1072.434 L -144 886.434 Q -258 736.434 6 556.434 Z " fill="rgb(5,53,77)"/><g><g opacity="0.21"><path d=" M 1082.707 279 C 1082.707 285.623 1088.084 291 1094.707 291 C 1101.33 291 1106.707 285.623 1106.707 279 C 1106.707 272.377 1101.33 267 1094.707 267 C 1088.084 267 1082.707 272.377 1082.707 279 Z " fill="rgb(255,75,75)"/></g><path d=" M 1084.335 279 C 1084.335 284.724 1088.982 289.371 1094.707 289.371 C 1100.431 289.371 1105.078 284.724 1105.078 279 C 1105.078 273.276 1100.431 268.629 1094.707 268.629 C 1088.982 268.629 1084.335 273.276 1084.335 279 Z " fill="rgb(255,153,0)"/><path d=" M 1096.507 289.216 C 1095.922 289.318 1095.32 289.371 1094.707 289.371 C 1088.982 289.371 1084.335 284.724 1084.335 279 C 1084.335 273.276 1088.982 268.629 1094.707 268.629 C 1095.32 268.629 1095.922 268.682 1096.507 268.784 C 1091.639 269.638 1087.935 273.89 1087.935 279 C 1087.935 284.11 1091.639 288.362 1096.507 289.216 Z " fill-rule="evenodd" fill="rgb(202,124,7)"/></g><g><g opacity="0.21"><path d=" M 858 126.707 C 858 133.33 863.377 138.707 870 138.707 C 876.623 138.707 882 133.33 882 126.707 C 882 120.084 876.623 114.707 870 114.707 C 863.377 114.707 858 120.084 858 126.707 Z " fill="rgb(253,12,12)"/></g><path d=" M 859.629 126.707 C 859.629 132.431 864.276 137.078 870 137.078 C 875.724 137.078 880.371 132.431 880.371 126.707 C 880.371 120.982 875.724 116.335 870 116.335 C 864.276 116.335 859.629 120.982 859.629 126.707 Z " fill="rgb(255,69,69)"/><path d=" M 871.8 136.922 C 871.215 137.025 870.614 137.078 870 137.078 C 864.276 137.078 859.629 132.431 859.629 126.707 C 859.629 120.982 864.276 116.335 870 116.335 C 870.614 116.335 871.215 116.389 871.8 116.491 C 866.933 117.344 863.229 121.596 863.229 126.707 C 863.229 131.817 866.933 136.069 871.8 136.922 Z " fill-rule="evenodd" fill="rgb(213,0,0)"/></g><g><g opacity="0.21"><circle vector-effect="non-scaling-stroke" cx="1056.8532723552414" cy="88.85327235524156" r="25.853272355241643" fill="rgb(255,255,185)"/></g><circle vector-effect="non-scaling-stroke" cx="1056.8532723552416" cy="88.85327235524159" r="22.34461396417305" fill="rgb(23,202,202)"/><path d=" M 1060.731 66.844 C 1059.471 66.624 1058.176 66.509 1056.853 66.509 C 1044.521 66.509 1034.509 76.521 1034.509 88.853 C 1034.509 101.186 1044.521 111.198 1056.853 111.198 C 1058.176 111.198 1059.471 111.083 1060.731 110.862 C 1050.245 109.024 1042.265 99.863 1042.265 88.853 C 1042.265 77.843 1050.245 68.683 1060.731 66.844 Z " fill-rule="evenodd" fill="rgb(62,96,247)"/></g><g><g opacity="0.21"><circle vector-effect="non-scaling-stroke" cx="626.9562514542827" cy="45.35327235524147" r="30.646727644758585" fill="rgb(255,255,185)"/></g><circle vector-effect="non-scaling-stroke" cx="626.9562514542824" cy="45.3532723552415" r="26.487528892969863" fill="rgb(249,121,86)"/><path d=" M 631.553 19.263 C 630.06 19.002 628.524 18.866 626.956 18.866 C 612.337 18.866 600.469 30.734 600.469 45.353 C 600.469 59.972 612.337 71.841 626.956 71.841 C 628.524 71.841 630.06 71.704 631.553 71.443 C 619.122 69.264 609.663 58.405 609.663 45.353 C 609.663 32.302 619.122 21.443 631.553 19.263 Z " fill-rule="evenodd" fill="rgb(255,79,79)"/></g><g><g><g opacity="0.21"><circle vector-effect="non-scaling-stroke" cx="184.00000000000003" cy="202.99999999999997" r="139.99999999999997" fill="rgb(255,255,185)"/></g><circle vector-effect="non-scaling-stroke" cx="184" cy="202.99999999999997" r="120.99999999999999" fill="rgb(255,255,185)"/><path d=" M 205 83.816 C 198.178 82.623 191.161 82 184 82 C 117.218 82 63 136.218 63 203 C 63 269.782 117.218 324 184 324 C 191.161 324 198.178 323.377 205 322.184 C 148.214 312.227 105 262.62 105 203 C 105 143.38 148.214 93.773 205 83.816 Z " fill-rule="evenodd" fill="rgb(223,223,146)"/></g><g><g opacity="0.21"><path d=" M 116.348 283.925 C 108.663 268.857 114.657 250.385 129.724 242.699 C 144.792 235.014 163.265 241.008 170.95 256.075 C 178.635 271.143 172.641 289.615 157.574 297.301 C 142.506 304.986 124.034 298.992 116.348 283.925 Z " fill="rgb(255,255,185)"/></g><path d=" M 120.054 282.035 C 113.411 269.012 118.591 253.047 131.614 246.404 C 144.637 239.762 160.602 244.942 167.245 257.965 C 173.887 270.988 168.707 286.953 155.684 293.596 C 142.661 300.238 126.696 295.058 120.054 282.035 Z " fill="rgb(223,223,146)"/><path d=" M 135.89 244.67 C 134.441 245.116 133.011 245.692 131.614 246.404 C 118.591 253.047 113.411 269.012 120.054 282.035 C 126.696 295.058 142.661 300.238 155.684 293.596 C 157.08 292.883 158.387 292.064 159.598 291.153 C 147.535 294.859 134.174 289.484 128.244 277.858 C 122.314 266.231 125.807 252.26 135.89 244.67 Z " fill-rule="evenodd" fill="rgb(155,155,98)"/></g><g><g opacity="0.21"><path d=" M 219.793 200.255 C 213.836 188.576 217.802 174.604 228.644 169.074 C 239.486 163.544 253.125 168.537 259.082 180.215 C 265.038 191.894 261.072 205.866 250.23 211.396 C 239.388 216.925 225.75 211.933 219.793 200.255 Z " fill="rgb(255,255,185)"/></g><path d=" M 222.459 198.895 C 217.311 188.801 220.738 176.726 230.109 171.946 C 239.48 167.167 251.267 171.481 256.415 181.575 C 261.564 191.669 258.136 203.744 248.765 208.524 C 239.395 213.303 227.607 208.989 222.459 198.895 Z " fill="rgb(223,223,146)"/><path d=" M 233.196 170.718 C 232.147 171.026 231.114 171.434 230.109 171.946 C 220.738 176.726 217.311 188.801 222.459 198.895 C 227.607 208.989 239.395 213.303 248.765 208.524 C 249.77 208.011 250.707 207.415 251.572 206.746 C 242.836 209.306 232.949 204.9 228.352 195.889 C 223.756 186.877 225.995 176.287 233.196 170.718 Z " fill-rule="evenodd" fill="rgb(155,155,98)"/></g><g><g opacity="0.21"><path d=" M 214.783 122.316 C 217.321 127.291 215.631 133.243 211.013 135.599 C 206.394 137.954 200.584 135.828 198.047 130.853 C 195.509 125.878 197.199 119.926 201.817 117.57 C 206.436 115.215 212.246 117.341 214.783 122.316 Z " fill="rgb(255,255,185)"/></g><path d=" M 213.647 122.896 C 215.841 127.195 214.38 132.339 210.389 134.375 C 206.397 136.411 201.375 134.573 199.182 130.274 C 196.989 125.974 198.449 120.83 202.441 118.794 C 206.433 116.758 211.454 118.596 213.647 122.896 Z " fill="rgb(223,223,146)"/><path d=" M 209.074 134.899 C 209.521 134.767 209.961 134.594 210.389 134.375 C 214.38 132.339 215.841 127.195 213.647 122.896 C 211.454 118.596 206.433 116.758 202.441 118.794 C 202.013 119.012 201.614 119.266 201.246 119.551 C 204.967 118.461 209.179 120.337 211.137 124.176 C 213.095 128.015 212.141 132.526 209.074 134.899 Z " fill-rule="evenodd" fill="rgb(155,155,98)"/></g><g><g opacity="0.21"><path d=" M 108.589 171.156 C 104.942 164.004 107.786 155.237 114.938 151.589 C 122.089 147.942 130.857 150.786 134.505 157.938 C 138.152 165.089 135.308 173.857 128.156 177.505 C 121.004 181.152 112.237 178.308 108.589 171.156 Z " fill="rgb(255,255,185)"/></g><path d=" M 110.348 170.259 C 107.195 164.078 109.654 156.5 115.835 153.348 C 122.016 150.195 129.594 152.654 132.746 158.835 C 135.899 165.016 133.44 172.594 127.259 175.746 C 121.078 178.899 113.5 176.44 110.348 170.259 Z " fill="rgb(223,223,146)"/><path d=" M 117.864 152.525 C 117.177 152.736 116.498 153.01 115.835 153.348 C 109.654 156.5 107.195 164.078 110.348 170.259 C 113.5 176.44 121.078 178.899 127.259 175.746 C 127.922 175.408 128.542 175.019 129.117 174.587 C 123.391 176.346 117.05 173.795 114.235 168.276 C 111.421 162.758 113.078 156.127 117.864 152.525 Z " fill-rule="evenodd" fill="rgb(155,155,98)"/></g></g><g><g><path d="M 462.813 160.745 L 500.586 140.684 C 501.649 140.119 502.972 140.524 503.537 141.587 L 503.617 141.739 C 504.182 142.803 503.777 144.125 502.714 144.69 L 464.941 164.752 C 463.877 165.317 462.555 164.912 461.99 163.848 L 461.909 163.696 C 461.344 162.633 461.749 161.31 462.813 160.745 Z" style="stroke:none;fill:#FDFDC5;stroke-miterlimit:10;"/><path d="M 437.982 173.933 L 453.58 165.649 C 454.282 165.276 455.155 165.543 455.528 166.245 L 456.305 167.707 C 456.678 168.41 456.41 169.283 455.708 169.656 L 440.11 177.94 C 439.408 178.313 438.535 178.046 438.162 177.343 L 437.385 175.882 C 437.012 175.179 437.28 174.306 437.982 173.933 Z" style="stroke:none;fill:#FDFDC5;stroke-miterlimit:10;"/><path d="M 462.54 171.359 L 493.501 154.916 C 494.567 154.35 495.891 154.755 496.457 155.821 L 496.737 156.348 C 497.303 157.413 496.897 158.738 495.832 159.304 L 464.871 175.748 C 463.805 176.314 462.48 175.908 461.915 174.842 L 461.635 174.316 C 461.069 173.25 461.474 171.925 462.54 171.359 Z" style="stroke:none;fill:#FDFDC5;stroke-miterlimit:10;"/><path d="M 441.205 182.691 L 454.853 175.442 C 455.581 175.055 456.487 175.333 456.874 176.061 L 457.802 177.809 C 458.189 178.537 457.912 179.443 457.183 179.83 L 443.535 187.079 C 442.806 187.466 441.9 187.189 441.513 186.46 L 440.585 184.713 C 440.198 183.984 440.476 183.078 441.205 182.691 Z" style="stroke:none;fill:#FDFDC5;stroke-miterlimit:10;"/><path d="M 418.954 194.509 L 434.269 186.374 C 435.037 185.966 435.992 186.259 436.4 187.027 L 437.252 188.631 C 437.66 189.4 437.368 190.355 436.6 190.763 L 421.285 198.897 C 420.516 199.305 419.561 199.012 419.153 198.244 L 418.301 196.64 C 417.893 195.871 418.186 194.917 418.954 194.509 Z" style="stroke:none;fill:#FDFDC5;stroke-miterlimit:10;"/><path d="M 449.633 189.173 L 497.131 163.946 C 498.341 163.303 499.81 163.696 500.408 164.823 L 500.408 164.823 C 501.006 165.95 500.51 167.386 499.299 168.029 L 451.801 193.256 C 450.591 193.899 449.123 193.506 448.524 192.379 L 448.524 192.379 C 447.926 191.252 448.423 189.816 449.633 189.173 Z" style="stroke:none;fill:#FDFDC5;stroke-miterlimit:10;"/><path d="M 480.52 183.336 L 510.873 167.215 C 511.909 166.664 513.198 167.059 513.748 168.095 L 514.044 168.652 C 514.594 169.688 514.199 170.976 513.163 171.526 L 482.81 187.647 C 481.774 188.198 480.486 187.803 479.935 186.767 L 479.639 186.21 C 479.089 185.174 479.484 183.886 480.52 183.336 Z" style="stroke:none;fill:#FDFDC5;stroke-miterlimit:10;"/><path d="M 438.897 205.442 L 468.66 189.635 C 469.686 189.089 470.963 189.48 471.508 190.507 L 471.822 191.098 C 472.367 192.125 471.976 193.401 470.95 193.947 L 441.187 209.754 C 440.161 210.299 438.884 209.908 438.339 208.881 L 438.025 208.29 C 437.48 207.263 437.87 205.987 438.897 205.442 Z" style="stroke:none;fill:#FDFDC5;stroke-miterlimit:10;"/></g><g><path d=" M 495.138 170.239 C 493.775 169.332 492.565 168.216 491.563 166.903 L 493.509 165.87 C 494.72 165.227 495.209 163.772 494.599 162.624 L 494.599 162.624 C 493.99 161.477 492.511 161.067 491.3 161.711 L 489.354 162.744 C 488.785 161.053 488.542 159.29 488.6 157.519 L 495.046 154.095 C 496.258 153.452 496.747 151.997 496.137 150.849 L 496.137 150.849 C 495.528 149.702 494.049 149.292 492.837 149.936 L 489.955 151.466 C 491.68 147.367 494.979 143.662 499.497 141.262 C 508.869 136.285 519.96 138.8 524.25 146.877 C 528.539 154.953 524.413 165.552 515.041 170.529 C 510.341 173.025 505.208 173.637 500.718 172.608 L 503.963 170.885 C 505.175 170.241 505.664 168.787 505.054 167.639 L 505.054 167.639 C 504.445 166.491 502.966 166.082 501.754 166.725 L 495.138 170.239 Z " fill-rule="evenodd" fill="rgb(253,253,197)"/></g></g><g><g><path d="M 1124.615 173.402 L 1150.026 159.906 C 1150.803 159.493 1151.769 159.789 1152.182 160.566 L 1152.361 160.903 C 1152.774 161.68 1152.478 162.646 1151.701 163.059 L 1126.289 176.555 C 1125.512 176.968 1124.546 176.672 1124.134 175.895 L 1123.955 175.558 C 1123.542 174.781 1123.838 173.815 1124.615 173.402 Z" style="stroke:none;fill:#F97956;stroke-miterlimit:10;"/><path d="M 1107.743 182.363 L 1118.186 176.817 C 1118.699 176.544 1119.337 176.739 1119.61 177.252 L 1120.297 178.546 C 1120.569 179.059 1120.374 179.697 1119.861 179.969 L 1109.417 185.516 C 1108.904 185.789 1108.266 185.593 1107.994 185.08 L 1107.307 183.787 C 1107.034 183.274 1107.23 182.636 1107.743 182.363 Z" style="stroke:none;fill:#F97956;stroke-miterlimit:10;"/><path d="M 1124.902 181.488 L 1145.694 170.445 C 1146.472 170.032 1147.44 170.328 1147.853 171.106 L 1148.189 171.739 C 1148.602 172.517 1148.306 173.484 1147.528 173.898 L 1126.735 184.941 C 1125.957 185.354 1124.989 185.058 1124.576 184.28 L 1124.24 183.647 C 1123.827 182.869 1124.123 181.901 1124.902 181.488 Z" style="stroke:none;fill:#F97956;stroke-miterlimit:10;"/><path d="M 1110.402 189.189 L 1119.519 184.347 C 1120.051 184.064 1120.713 184.267 1120.995 184.799 L 1121.805 186.323 C 1122.087 186.855 1121.885 187.517 1121.352 187.8 L 1112.236 192.642 C 1111.704 192.924 1111.042 192.722 1110.759 192.189 L 1109.95 190.666 C 1109.667 190.133 1109.87 189.472 1110.402 189.189 Z" style="stroke:none;fill:#F97956;stroke-miterlimit:10;"/><path d="M 1095.318 197.2 L 1105.557 191.762 C 1106.118 191.464 1106.816 191.678 1107.114 192.239 L 1107.868 193.658 C 1108.166 194.219 1107.952 194.917 1107.391 195.215 L 1097.152 200.653 C 1096.591 200.951 1095.893 200.738 1095.595 200.176 L 1094.841 198.757 C 1094.543 198.196 1094.757 197.498 1095.318 197.2 Z" style="stroke:none;fill:#F97956;stroke-miterlimit:10;"/><path d="M 1116.657 194.49 L 1148.635 177.505 C 1149.519 177.036 1150.618 177.372 1151.088 178.257 L 1151.093 178.266 C 1151.562 179.15 1151.226 180.249 1150.342 180.718 L 1118.363 197.702 C 1117.479 198.172 1116.38 197.835 1115.911 196.951 L 1115.906 196.942 C 1115.436 196.058 1115.773 194.959 1116.657 194.49 Z" style="stroke:none;fill:#F97956;stroke-miterlimit:10;"/><path d="M 1138.061 191.437 L 1158.446 180.61 C 1159.203 180.208 1160.144 180.496 1160.546 181.253 L 1160.891 181.902 C 1161.293 182.659 1161.005 183.6 1160.248 184.002 L 1139.863 194.829 C 1139.106 195.231 1138.165 194.943 1137.763 194.186 L 1137.418 193.537 C 1137.016 192.78 1137.304 191.839 1138.061 191.437 Z" style="stroke:none;fill:#F97956;stroke-miterlimit:10;"/><path d="M 1109.836 206.427 L 1129.823 195.812 C 1130.573 195.414 1131.505 195.699 1131.903 196.449 L 1132.262 197.124 C 1132.66 197.874 1132.374 198.806 1131.625 199.205 L 1111.638 209.82 C 1110.888 210.218 1109.955 209.933 1109.557 209.183 L 1109.198 208.508 C 1108.8 207.758 1109.086 206.826 1109.836 206.427 Z" style="stroke:none;fill:#F97956;stroke-miterlimit:10;"/></g><g><path d=" M 1147.634 182.156 C 1146.637 181.402 1145.737 180.496 1144.974 179.45 L 1146.179 178.81 C 1147.064 178.34 1147.401 177.24 1146.931 176.355 L 1146.896 176.289 C 1146.426 175.404 1145.326 175.067 1144.441 175.537 L 1143.236 176.177 C 1142.761 174.861 1142.511 173.505 1142.471 172.157 L 1146.728 169.896 C 1147.613 169.426 1147.95 168.326 1147.48 167.441 L 1147.445 167.375 C 1146.975 166.49 1145.875 166.153 1144.99 166.623 L 1143.15 167.6 C 1144.176 164.55 1146.325 161.872 1149.389 160.245 C 1155.744 156.869 1163.644 159.289 1167.019 165.644 C 1170.394 171.999 1167.975 179.899 1161.62 183.274 C 1158.433 184.967 1154.857 185.202 1151.659 184.215 L 1153.744 183.107 C 1154.629 182.637 1154.966 181.537 1154.496 180.652 L 1154.461 180.586 C 1153.991 179.701 1152.891 179.364 1152.006 179.834 L 1147.634 182.156 Z " fill-rule="evenodd" fill="rgb(249,121,86)"/></g></g><g><text transform="matrix(0.778,-0.628,0.628,0.778,344.363,384.123)" style="font-family:'Over the Rainbow';font-weight:400;font-size:36px;font-style:normal;fill:#ffffff;stroke:none;">¡Proacidad!</text><text transform="matrix(0.986,-0.166,0.166,0.986,983.155,597.213)" style="font-family:'Over the Rainbow';font-weight:400;font-size:24px;font-style:normal;fill:#ffffff;stroke:none;">Perdón pues por no </text><text transform="matrix(0.986,-0.166,0.166,0.986,1022.656,640.214)" style="font-family:'Over the Rainbow';font-weight:400;font-size:24px;font-style:normal;fill:#ffffff;stroke:none;">ser pro  ... :'</text><text transform="matrix(0.986,-0.166,0.166,0.986,1075.547,691.789)" style="font-family:'Over the Rainbow';font-weight:400;font-size:24px;font-style:normal;fill:#ffffff;stroke:none;">Me perdonas? </text><text transform="matrix(0.986,-0.168,0.168,0.986,134.14,703.763)" style="font-family:'Over the Rainbow';font-weight:400;font-size:36px;font-style:normal;fill:#ffffff;stroke:none;">¡Veido!</text><text transform="matrix(0.998,0.063,-0.063,0.998,621.332,582.853)" style="font-family:'Over the Rainbow';font-weight:400;font-size:24px;font-style:normal;fill:#ffffff;stroke:none;">¡La morición! :'O</text><text transform="matrix(0.949,-0.315,0.315,0.949,1062.419,364.76)" style="font-family:'Over the Rainbow';font-weight:400;font-size:24px;font-style:normal;fill:#ffffff;stroke:none;">¡Prooooooo .... !</text><text transform="matrix(0.979,0.204,-0.204,0.979,510.677,109.185)" style="font-family:'Over the Rainbow';font-weight:400;font-size:36px;font-style:normal;fill:#ffffff;stroke:none;">¡Terecidad! :)</text><text transform="matrix(1,0,0,1,896.347,205.001)" style="font-family:'Over the Rainbow';font-weight:400;font-size:36px;font-style:normal;fill:#ffffff;stroke:none;">¡Bonicidad!</text></g></g></svg>