<?xml version="1.0" encoding="UTF-8" standalone="no"?><!-- Generator: Gravit.io --><svg xmlns="http://www.w3.org/2000/svg" xmlns:xlink="http://www.w3.org/1999/xlink" style="isolation:isolate" viewBox="0 0 1280 800" width="1280pt" height="800pt"><defs><clipPath id="_clipPath_gbq36IgalwWFQKyOSRWSLAKUbwY0c2Wa"><rect width="1280" height="800"/></clipPath></defs><g clip-path="url(#_clipPath_gbq36IgalwWFQKyOSRWSLAKUbwY0c2Wa)"><rect width="1280" height="800" style="fill:rgb(46,11,70)"/><g><g opacity="0.43"><circle vector-effect="non-scaling-stroke" cx="705.9999999999999" cy="417.64672764475824" r="229.64672764475836" fill="rgb(255,255,179)"/></g><g opacity="0.48"><circle vector-effect="non-scaling-stroke" cx="705.9999999999999" cy="417.64672764475824" r="177.64672764475847" fill="rgb(236,236,203)"/></g><g opacity="0.38"><circle vector-effect="non-scaling-stroke" cx="705.9999999999999" cy="417.64672764475847" r="121.64672764475836" fill="rgb(251,231,104)"/></g><circle vector-effect="non-scaling-stroke" cx="705.9999999999998" cy="417.64672764475836" r="112.00000000000011" fill="rgb(251,231,104)"/></g><path d=" M 15.948 644.866 C 334.963 652.9 270.6 717.17 474.882 561.851 C 679.163 406.531 746.324 393.141 945.008 583.274 C 1143.693 773.407 1490.691 596.664 1529.868 561.851 Q 1569.045 527.037 1513.078 1314.348 Q -40.019 1362.551 -45.616 1346.483 C -51.213 1330.416 -303.066 636.832 15.948 644.866 Z " fill="rgb(29,91,85)"/><path d=" M 1404 429.08 C 1269 324.08 1113 378.08 990 516.08 Q 867 654.08 516 693.08 L 63 702.08 L 0 921.08 L 1281 1116.08 L 1680 921.08 Q 1539 534.08 1404 429.08 Z " fill="rgb(18,77,106)"/><path d=" M 6 556.434 C 270 376.434 216 367.434 456 553.434 C 696 739.434 1254 730.434 1290 730.434 Q 1326 730.434 1371 919.434 L 273 1072.434 L -144 886.434 Q -258 736.434 6 556.434 Z " fill="rgb(5,53,77)"/><g><g opacity="0.21"><path d=" M 1082.707 279 C 1082.707 285.623 1088.084 291 1094.707 291 C 1101.33 291 1106.707 285.623 1106.707 279 C 1106.707 272.377 1101.33 267 1094.707 267 C 1088.084 267 1082.707 272.377 1082.707 279 Z " fill="rgb(255,75,75)"/></g><path d=" M 1084.335 279 C 1084.335 284.724 1088.982 289.371 1094.707 289.371 C 1100.431 289.371 1105.078 284.724 1105.078 279 C 1105.078 273.276 1100.431 268.629 1094.707 268.629 C 1088.982 268.629 1084.335 273.276 1084.335 279 Z " fill="rgb(255,153,0)"/><path d=" M 1096.507 289.216 C 1095.922 289.318 1095.32 289.371 1094.707 289.371 C 1088.982 289.371 1084.335 284.724 1084.335 279 C 1084.335 273.276 1088.982 268.629 1094.707 268.629 C 1095.32 268.629 1095.922 268.682 1096.507 268.784 C 1091.639 269.638 1087.935 273.89 1087.935 279 C 1087.935 284.11 1091.639 288.362 1096.507 289.216 Z " fill-rule="evenodd" fill="rgb(202,124,7)"/></g><g><g opacity="0.21"><path d=" M 858 126.707 C 858 133.33 863.377 138.707 870 138.707 C 876.623 138.707 882 133.33 882 126.707 C 882 120.084 876.623 114.707 870 114.707 C 863.377 114.707 858 120.084 858 126.707 Z " fill="rgb(253,12,12)"/></g><path d=" M 859.629 126.707 C 859.629 132.431 864.276 137.078 870 137.078 C 875.724 137.078 880.371 132.431 880.371 126.707 C 880.371 120.982 875.724 116.335 870 116.335 C 864.276 116.335 859.629 120.982 859.629 126.707 Z " fill="rgb(255,69,69)"/><path d=" M 871.8 136.922 C 871.215 137.025 870.614 137.078 870 137.078 C 864.276 137.078 859.629 132.431 859.629 126.707 C 859.629 120.982 864.276 116.335 870 116.335 C 870.614 116.335 871.215 116.389 871.8 116.491 C 866.933 117.344 863.229 121.596 863.229 126.707 C 863.229 131.817 866.933 136.069 871.8 136.922 Z " fill-rule="evenodd" fill="rgb(213,0,0)"/></g><g><g opacity="0.21"><circle vector-effect="non-scaling-stroke" cx="1056.8532723552414" cy="88.85327235524156" r="25.853272355241643" fill="rgb(255,255,185)"/></g><circle vector-effect="non-scaling-stroke" cx="1056.8532723552416" cy="88.85327235524159" r="22.34461396417305" fill="rgb(23,202,202)"/><path d=" M 1060.731 66.844 C 1059.471 66.624 1058.176 66.509 1056.853 66.509 C 1044.521 66.509 1034.509 76.521 1034.509 88.853 C 1034.509 101.186 1044.521 111.198 1056.853 111.198 C 1058.176 111.198 1059.471 111.083 1060.731 110.862 C 1050.245 109.024 1042.265 99.863 1042.265 88.853 C 1042.265 77.843 1050.245 68.683 1060.731 66.844 Z " fill-rule="evenodd" fill="rgb(62,96,247)"/></g><g><g opacity="0.21"><circle vector-effect="non-scaling-stroke" cx="626.9562514542827" cy="45.35327235524147" r="30.646727644758585" fill="rgb(255,255,185)"/></g><circle vector-effect="non-scaling-stroke" cx="626.9562514542824" cy="45.3532723552415" r="26.487528892969863" fill="rgb(249,121,86)"/><path d=" M 631.553 19.263 C 630.06 19.002 628.524 18.866 626.956 18.866 C 612.337 18.866 600.469 30.734 600.469 45.353 C 600.469 59.972 612.337 71.841 626.956 71.841 C 628.524 71.841 630.06 71.704 631.553 71.443 C 619.122 69.264 609.663 58.405 609.663 45.353 C 609.663 32.302 619.122 21.443 631.553 19.263 Z " fill-rule="evenodd" fill="rgb(255,79,79)"/></g><g><g><g opacity="0.21"><circle vector-effect="non-scaling-stroke" cx="184.00000000000003" cy="202.99999999999997" r="139.99999999999997" fill="rgb(255,255,185)"/></g><circle vector-effect="non-scaling-stroke" cx="184" cy="202.99999999999997" r="120.99999999999999" fill="rgb(255,255,185)"/><path d=" M 205 83.816 C 198.178 82.623 191.161 82 184 82 C 117.218 82 63 136.218 63 203 C 63 269.782 117.218 324 184 324 C 191.161 324 198.178 323.377 205 322.184 C 148.214 312.227 105 262.62 105 203 C 105 143.38 148.214 93.773 205 83.816 Z " fill-rule="evenodd" fill="rgb(223,223,146)"/></g><g><g opacity="0.21"><path d=" M 116.348 283.925 C 108.663 268.857 114.657 250.385 129.724 242.699 C 144.792 235.014 163.265 241.008 170.95 256.075 C 178.635 271.143 172.641 289.615 157.574 297.301 C 142.506 304.986 124.034 298.992 116.348 283.925 Z " fill="rgb(255,255,185)"/></g><path d=" M 120.054 282.035 C 113.411 269.012 118.591 253.047 131.614 246.404 C 144.637 239.762 160.602 244.942 167.245 257.965 C 173.887 270.988 168.707 286.953 155.684 293.596 C 142.661 300.238 126.696 295.058 120.054 282.035 Z " fill="rgb(223,223,146)"/><path d=" M 135.89 244.67 C 134.441 245.116 133.011 245.692 131.614 246.404 C 118.591 253.047 113.411 269.012 120.054 282.035 C 126.696 295.058 142.661 300.238 155.684 293.596 C 157.08 292.883 158.387 292.064 159.598 291.153 C 147.535 294.859 134.174 289.484 128.244 277.858 C 122.314 266.231 125.807 252.26 135.89 244.67 Z " fill-rule="evenodd" fill="rgb(155,155,98)"/></g><g><g opacity="0.21"><path d=" M 219.793 200.255 C 213.836 188.576 217.802 174.604 228.644 169.074 C 239.486 163.544 253.125 168.537 259.082 180.215 C 265.038 191.894 261.072 205.866 250.23 211.396 C 239.388 216.925 225.75 211.933 219.793 200.255 Z " fill="rgb(255,255,185)"/></g><path d=" M 222.459 198.895 C 217.311 188.801 220.738 176.726 230.109 171.946 C 239.48 167.167 251.267 171.481 256.415 181.575 C 261.564 191.669 258.136 203.744 248.765 208.524 C 239.395 213.303 227.607 208.989 222.459 198.895 Z " fill="rgb(223,223,146)"/><path d=" M 233.196 170.718 C 232.147 171.026 231.114 171.434 230.109 171.946 C 220.738 176.726 217.311 188.801 222.459 198.895 C 227.607 208.989 239.395 213.303 248.765 208.524 C 249.77 208.011 250.707 207.415 251.572 206.746 C 242.836 209.306 232.949 204.9 228.352 195.889 C 223.756 186.877 225.995 176.287 233.196 170.718 Z " fill-rule="evenodd" fill="rgb(155,155,98)"/></g><g><g opacity="0.21"><path d=" M 214.783 122.316 C 217.321 127.291 215.631 133.243 211.013 135.599 C 206.394 137.954 200.584 135.828 198.047 130.853 C 195.509 125.878 197.199 119.926 201.817 117.57 C 206.436 115.215 212.246 117.341 214.783 122.316 Z " fill="rgb(255,255,185)"/></g><path d=" M 213.647 122.896 C 215.841 127.195 214.38 132.339 210.389 134.375 C 206.397 136.411 201.375 134.573 199.182 130.274 C 196.989 125.974 198.449 120.83 202.441 118.794 C 206.433 116.758 211.454 118.596 213.647 122.896 Z " fill="rgb(223,223,146)"/><path d=" M 209.074 134.899 C 209.521 134.767 209.961 134.594 210.389 134.375 C 214.38 132.339 215.841 127.195 213.647 122.896 C 211.454 118.596 206.433 116.758 202.441 118.794 C 202.013 119.012 201.614 119.266 201.246 119.551 C 204.967 118.461 209.179 120.337 211.137 124.176 C 213.095 128.015 212.141 132.526 209.074 134.899 Z " fill-rule="evenodd" fill="rgb(155,155,98)"/></g><g><g opacity="0.21"><path d=" M 108.589 171.156 C 104.942 164.004 107.786 155.237 114.938 151.589 C 122.089 147.942 130.857 150.786 134.505 157.938 C 138.152 165.089 135.308 173.857 128.156 177.505 C 121.004 181.152 112.237 178.308 108.589 171.156 Z " fill="rgb(255,255,185)"/></g><path d=" M 110.348 170.259 C 107.195 164.078 109.654 156.5 115.835 153.348 C 122.016 150.195 129.594 152.654 132.746 158.835 C 135.899 165.016 133.44 172.594 127.259 175.746 C 121.078 178.899 113.5 176.44 110.348 170.259 Z " fill="rgb(223,223,146)"/><path d=" M 117.864 152.525 C 117.177 152.736 116.498 153.01 115.835 153.348 C 109.654 156.5 107.195 164.078 110.348 170.259 C 113.5 176.44 121.078 178.899 127.259 175.746 C 127.922 175.408 128.542 175.019 129.117 174.587 C 123.391 176.346 117.05 173.795 114.235 168.276 C 111.421 162.758 113.078 156.127 117.864 152.525 Z " fill-rule="evenodd" fill="rgb(155,155,98)"/></g></g><g><g><path d="M 462.809 160.748 L 500.583 140.685 C 501.647 140.12 502.969 140.525 503.534 141.589 L 503.615 141.741 C 504.18 142.805 503.775 144.127 502.711 144.692 L 464.937 164.755 C 463.873 165.32 462.551 164.915 461.986 163.851 L 461.905 163.699 C 461.34 162.635 461.745 161.313 462.809 160.748 Z" style="stroke:none;fill:#FDFDC5;stroke-miterlimit:10;"/><path d="M 437.985 173.934 L 453.578 165.648 C 454.28 165.275 455.153 165.543 455.526 166.245 L 456.302 167.707 C 456.675 168.41 456.407 169.283 455.705 169.656 L 440.112 177.942 C 439.41 178.315 438.537 178.047 438.164 177.345 L 437.388 175.883 C 437.015 175.18 437.283 174.307 437.985 173.934 Z" style="stroke:none;fill:#FDFDC5;stroke-miterlimit:10;"/><path d="M 462.541 171.357 L 493.499 154.915 C 494.564 154.35 495.889 154.755 496.455 155.821 L 496.734 156.347 C 497.3 157.413 496.895 158.737 495.829 159.303 L 464.871 175.745 C 463.806 176.31 462.481 175.905 461.915 174.839 L 461.636 174.313 C 461.07 173.247 461.475 171.923 462.541 171.357 Z" style="stroke:none;fill:#FDFDC5;stroke-miterlimit:10;"/><path d="M 441.204 182.69 L 454.855 175.445 C 455.584 175.058 456.49 175.335 456.877 176.064 L 457.805 177.81 C 458.192 178.538 457.915 179.444 457.186 179.83 L 443.535 187.075 C 442.806 187.462 441.9 187.185 441.513 186.456 L 440.585 184.71 C 440.198 183.982 440.475 183.076 441.204 182.69 Z" style="stroke:none;fill:#FDFDC5;stroke-miterlimit:10;"/><path d="M 418.957 194.508 L 434.272 186.374 C 435.041 185.966 435.996 186.259 436.404 187.027 L 437.256 188.631 C 437.664 189.399 437.371 190.354 436.603 190.762 L 421.288 198.896 C 420.519 199.304 419.564 199.011 419.156 198.243 L 418.304 196.639 C 417.896 195.871 418.189 194.916 418.957 194.508 Z" style="stroke:none;fill:#FDFDC5;stroke-miterlimit:10;"/><path d="M 449.632 189.169 L 497.129 163.949 C 498.34 163.306 499.808 163.699 500.406 164.825 L 500.406 164.825 C 501.005 165.952 500.508 167.388 499.298 168.031 L 451.801 193.251 C 450.59 193.894 449.122 193.501 448.524 192.375 L 448.524 192.375 C 447.925 191.248 448.422 189.812 449.632 189.169 Z" style="stroke:none;fill:#FDFDC5;stroke-miterlimit:10;"/><path d="M 480.519 183.34 L 510.871 167.219 C 511.907 166.668 513.196 167.063 513.746 168.099 L 514.042 168.656 C 514.592 169.692 514.197 170.98 513.161 171.53 L 482.809 187.651 C 481.773 188.202 480.484 187.807 479.934 186.771 L 479.638 186.214 C 479.088 185.178 479.483 183.89 480.519 183.34 Z" style="stroke:none;fill:#FDFDC5;stroke-miterlimit:10;"/><path d="M 438.898 205.442 L 468.661 189.636 C 469.688 189.091 470.964 189.482 471.51 190.508 L 471.824 191.1 C 472.369 192.126 471.978 193.402 470.952 193.948 L 441.189 209.754 C 440.162 210.299 438.886 209.908 438.34 208.882 L 438.026 208.29 C 437.481 207.264 437.872 205.988 438.898 205.442 Z" style="stroke:none;fill:#FDFDC5;stroke-miterlimit:10;"/></g><g><path d=" M 495.138 170.239 C 493.775 169.332 492.565 168.216 491.563 166.903 L 493.339 165.96 C 494.644 165.267 495.219 163.791 494.622 162.666 L 494.577 162.583 C 493.98 161.458 492.435 161.108 491.13 161.801 L 489.354 162.744 C 488.785 161.053 488.542 159.29 488.6 157.519 L 494.877 154.185 C 496.182 153.492 496.757 152.016 496.159 150.891 L 496.115 150.808 C 495.518 149.683 493.973 149.333 492.668 150.026 L 489.955 151.466 C 491.68 147.367 494.979 143.662 499.497 141.262 C 508.869 136.285 519.96 138.8 524.25 146.877 C 528.539 154.953 524.413 165.552 515.041 170.529 C 510.341 173.025 505.208 173.637 500.718 172.608 L 503.794 170.975 C 505.099 170.281 505.674 168.805 505.076 167.681 L 505.032 167.597 C 504.435 166.473 502.89 166.122 501.585 166.815 L 495.138 170.239 Z " fill-rule="evenodd" fill="rgb(253,253,197)"/></g></g><g><g><path d="M 1124.617 173.401 L 1150.029 159.906 C 1150.806 159.494 1151.772 159.789 1152.185 160.566 L 1152.364 160.903 C 1152.776 161.68 1152.481 162.646 1151.703 163.059 L 1126.291 176.554 C 1125.514 176.966 1124.548 176.671 1124.135 175.894 L 1123.956 175.557 C 1123.544 174.78 1123.839 173.814 1124.617 173.401 Z" style="stroke:none;fill:#F97956;stroke-miterlimit:10;"/><path d="M 1107.739 182.363 L 1118.186 176.813 C 1118.699 176.54 1119.337 176.736 1119.61 177.249 L 1120.297 178.543 C 1120.569 179.057 1120.374 179.695 1119.861 179.967 L 1109.414 185.517 C 1108.901 185.79 1108.263 185.594 1107.99 185.081 L 1107.303 183.787 C 1107.031 183.273 1107.226 182.635 1107.739 182.363 Z" style="stroke:none;fill:#F97956;stroke-miterlimit:10;"/><path d="M 1124.898 181.49 L 1145.697 170.447 C 1146.476 170.033 1147.444 170.33 1147.857 171.108 L 1148.193 171.74 C 1148.607 172.519 1148.31 173.486 1147.532 173.9 L 1126.733 184.943 C 1125.954 185.357 1124.986 185.06 1124.573 184.282 L 1124.237 183.65 C 1123.823 182.871 1124.12 181.904 1124.898 181.49 Z" style="stroke:none;fill:#F97956;stroke-miterlimit:10;"/><path d="M 1110.4 189.19 L 1119.516 184.348 C 1120.049 184.065 1120.71 184.268 1120.993 184.8 L 1121.802 186.324 C 1122.085 186.856 1121.882 187.518 1121.35 187.8 L 1112.234 192.642 C 1111.701 192.925 1111.04 192.722 1110.757 192.19 L 1109.948 190.666 C 1109.665 190.134 1109.868 189.472 1110.4 189.19 Z" style="stroke:none;fill:#F97956;stroke-miterlimit:10;"/><path d="M 1095.321 197.203 L 1105.556 191.765 C 1106.117 191.467 1106.814 191.68 1107.112 192.241 L 1107.865 193.661 C 1108.163 194.222 1107.95 194.919 1107.389 195.217 L 1097.154 200.655 C 1096.593 200.953 1095.896 200.74 1095.598 200.179 L 1094.845 198.759 C 1094.547 198.198 1094.76 197.501 1095.321 197.203 Z" style="stroke:none;fill:#F97956;stroke-miterlimit:10;"/><path d="M 1116.653 194.485 L 1148.631 177.502 C 1149.515 177.032 1150.614 177.369 1151.083 178.253 L 1151.088 178.262 C 1151.558 179.146 1151.221 180.245 1150.337 180.715 L 1118.359 197.698 C 1117.475 198.168 1116.376 197.831 1115.907 196.947 L 1115.902 196.938 C 1115.432 196.054 1115.769 194.955 1116.653 194.485 Z" style="stroke:none;fill:#F97956;stroke-miterlimit:10;"/><path d="M 1138.064 191.436 L 1158.444 180.611 C 1159.201 180.21 1160.142 180.498 1160.543 181.254 L 1160.889 181.904 C 1161.29 182.661 1161.002 183.602 1160.246 184.004 L 1139.866 194.829 C 1139.109 195.23 1138.168 194.942 1137.767 194.186 L 1137.421 193.536 C 1137.02 192.779 1137.308 191.838 1138.064 191.436 Z" style="stroke:none;fill:#F97956;stroke-miterlimit:10;"/><path d="M 1109.837 206.427 L 1129.821 195.81 C 1130.571 195.412 1131.503 195.697 1131.902 196.447 L 1132.26 197.122 C 1132.658 197.872 1132.373 198.805 1131.623 199.203 L 1111.639 209.82 C 1110.889 210.218 1109.957 209.933 1109.558 209.183 L 1109.2 208.508 C 1108.802 207.758 1109.087 206.825 1109.837 206.427 Z" style="stroke:none;fill:#F97956;stroke-miterlimit:10;"/></g><g><path d=" M 1147.634 182.156 C 1146.637 181.402 1145.737 180.496 1144.974 179.45 L 1146.179 178.81 C 1147.064 178.34 1147.401 177.24 1146.931 176.355 L 1146.896 176.289 C 1146.426 175.404 1145.326 175.067 1144.441 175.537 L 1143.236 176.177 C 1142.761 174.861 1142.511 173.505 1142.471 172.157 L 1146.728 169.896 C 1147.613 169.426 1147.95 168.326 1147.48 167.441 L 1147.445 167.375 C 1146.975 166.49 1145.875 166.153 1144.99 166.623 L 1143.15 167.6 C 1144.176 164.55 1146.325 161.872 1149.389 160.245 C 1155.744 156.869 1163.644 159.289 1167.019 165.644 C 1170.394 171.999 1167.975 179.899 1161.62 183.274 C 1158.433 184.967 1154.857 185.202 1151.659 184.215 L 1153.744 183.107 C 1154.629 182.637 1154.966 181.537 1154.496 180.652 L 1154.461 180.586 C 1153.991 179.701 1152.891 179.364 1152.006 179.834 L 1147.634 182.156 Z " fill-rule="evenodd" fill="rgb(249,121,86)"/></g></g></g></svg>